<?xml version="1.0" standalone="no"?>
<!DOCTYPE svg PUBLIC "-//W3C//DTD SVG 20010904//EN"
 "http://www.w3.org/TR/2001/REC-SVG-20010904/DTD/svg10.dtd">
<svg version="1.0" xmlns="http://www.w3.org/2000/svg"
 width="700.000000pt" height="700.000000pt" viewBox="0 0 700.000000 700.000000"
 preserveAspectRatio="xMidYMid meet">
<metadata>
Created by potrace 1.14, written by Peter Selinger 2001-2017
</metadata>
<g transform="translate(0.000000,700.000000) scale(0.100000,-0.100000)"
fill="#000000" stroke="none">
<path d="M3715 5269 c-451 -23 -896 -204 -1241 -507 -351 -308 -589 -780 -679
-1349 -36 -221 -30 -593 11 -803 114 -576 503 -977 1067 -1099 276 -60 619
-52 902 20 264 68 542 223 746 417 120 114 193 201 284 341 110 168 250 461
229 480 -7 6 -801 137 -932 154 -8 1 -28 -33 -49 -83 -121 -292 -322 -490
-578 -570 -97 -30 -253 -31 -345 -2 -172 55 -295 191 -352 387 -21 73 -23 100
-23 295 1 178 5 237 23 340 78 433 204 744 389 957 110 127 299 244 449 279
90 20 253 20 335 -1 218 -56 358 -229 403 -498 l12 -72 35 3 c19 2 222 23 453
48 230 24 424 44 432 44 19 0 18 39 -6 165 -50 259 -163 476 -339 655 -294
298 -686 425 -1226 399z"/>
</g>
</svg>
