<svg viewBox="0 0 1000 403" xmlns="http://www.w3.org/2000/svg" xml:space="preserve" style="fill-rule:evenodd;clip-rule:evenodd;stroke-linejoin:round;stroke-miterlimit:2"><g transform="matrix(.9182 0 0 .42494 -587.865 25.45)"><path style="fill:none" d="M640.24-59.892h1089.09v947.423H640.24z"/><clipPath id="a"><path d="M640.24-59.892h1089.09v947.423H640.24z"/></clipPath><g clip-path="url(#a)"><path d="M500.413 125.851c0-68.993-22.324-125.006-49.821-125.006H50.213C22.716.845.392 56.858.392 125.851v250.01c0 68.993 22.324 125.006 49.821 125.006h400.379c27.497 0 49.821-56.013 49.821-125.006v-250.01z" style="fill:url(#b)" transform="matrix(1.40943 0 0 1.21379 650.619 107.691)"/><text x="117.108" y="161.688" style="font-family:'Arial-BoldItalicMT','Arial',sans-serif;font-weight:700;font-style:italic;font-size:500px" transform="matrix(.51552 0 0 1.11392 656.983 415.199)">cmd</text><text x="117.108" y="161.688" style="font-family:'Kristi-Regular','Kristi';font-style:italic;font-size:766.211px" transform="matrix(.4531 -.01931 .00894 .97907 1235.58 428.645)">lazy</text><g><path style="fill:none" d="M673.08 1.867h1001.64v402.317H673.08z" transform="matrix(1.08731 0 0 2.3533 -91.603 -59.892)"/></g></g></g><defs><linearGradient id="b" x1="0" y1="0" x2="1" y2="0" gradientUnits="userSpaceOnUse" gradientTransform="translate(.392 250.856) scale(500.021)"><stop offset="0" style="stop-color:#f8c4a5;stop-opacity:1"/><stop offset="1" style="stop-color:#efca95;stop-opacity:1"/></linearGradient></defs></svg>